<svg width="109" height="37" viewBox="0 0 109 37" fill="none" xmlns="http://www.w3.org/2000/svg">
<path d="M44.4165 13.2731C43.6146 12.8713 42.7367 12.5223 41.783 12.2262C40.8293 11.9301 39.8973 11.7821 38.987 11.7821C37.7298 11.7821 36.722 12.0676 35.9633 12.6386C35.2264 13.2097 34.8579 13.9711 34.8579 14.9228C34.8579 15.6419 35.0963 16.2552 35.5732 16.7628C36.05 17.2492 36.6786 17.6722 37.4589 18.0317C38.2392 18.3913 39.052 18.7297 39.8973 19.0469C40.6343 19.3219 41.3604 19.6285 42.0756 19.9669C42.7909 20.3053 43.4303 20.7283 43.9939 21.2359C44.5791 21.7435 45.0343 22.3674 45.3594 23.1076C45.7062 23.8478 45.8796 24.7678 45.8796 25.8676C45.8796 27.0731 45.5653 28.1729 44.9367 29.1669C44.3298 30.1609 43.452 30.9435 42.3032 31.5145C41.1545 32.0855 39.7889 32.3711 38.2067 32.3711C37.1663 32.3711 36.1692 32.2547 35.2155 32.0221C34.2835 31.7894 33.4165 31.4934 32.6146 31.1338C31.8126 30.7531 31.0973 30.3619 30.4688 29.96L31.8668 27.549C32.387 27.9085 32.983 28.2575 33.655 28.5959C34.3269 28.9131 35.0313 29.1775 35.7683 29.389C36.5052 29.5793 37.2205 29.6745 37.9141 29.6745C38.651 29.6745 39.3771 29.5476 40.0924 29.2938C40.8293 29.0189 41.4362 28.6065 41.9131 28.0566C42.3899 27.5067 42.6284 26.777 42.6284 25.8676C42.6284 25.0851 42.4116 24.44 41.9781 23.9324C41.5663 23.4037 41.0136 22.9596 40.32 22.6C39.6264 22.2193 38.8894 21.8809 38.1091 21.5848C37.3722 21.3099 36.6244 21.0138 35.8658 20.6966C35.1072 20.3582 34.4027 19.9563 33.7525 19.4911C33.1022 19.0046 32.5821 18.4124 32.1919 17.7145C31.8018 17.0166 31.6067 16.1706 31.6067 15.1766C31.6067 13.9711 31.8993 12.9242 32.4845 12.0359C33.0914 11.1265 33.9151 10.4179 34.9554 9.91036C35.9958 9.38163 37.188 9.09611 38.5318 9.05381C40.049 9.05381 41.3821 9.23358 42.5308 9.59312C43.7013 9.95266 44.7308 10.3968 45.6195 10.9255L44.4165 13.2731Z" fill="white"/>
<path d="M47.9289 9.18071H51.0826V32.1173H47.9289V9.18071Z" fill="white"/>
<path d="M66.7433 13.2731C65.9414 12.8713 65.0635 12.5223 64.1099 12.2262C63.1562 11.9301 62.2241 11.7821 61.3138 11.7821C60.0566 11.7821 59.0488 12.0676 58.2901 12.6386C57.5532 13.2097 57.1847 13.9711 57.1847 14.9228C57.1847 15.6419 57.4232 16.2552 57.9 16.7628C58.3768 17.2492 59.0054 17.6722 59.7857 18.0317C60.566 18.3913 61.3788 18.7297 62.2241 19.0469C62.9611 19.3219 63.6872 19.6285 64.4025 19.9669C65.1177 20.3053 65.7571 20.7283 66.3207 21.2359C66.9059 21.7435 67.3611 22.3674 67.6862 23.1076C68.033 23.8478 68.2064 24.7678 68.2064 25.8676C68.2064 27.0731 67.8921 28.1729 67.2635 29.1669C66.6566 30.1609 65.7788 30.9435 64.63 31.5145C63.4813 32.0855 62.1158 32.3711 60.5335 32.3711C59.4931 32.3711 58.4961 32.2547 57.5424 32.0221C56.6103 31.7894 55.7433 31.4934 54.9414 31.1338C54.1394 30.7531 53.4241 30.3619 52.7956 29.96L54.1936 27.549C54.7138 27.9085 55.3099 28.2575 55.9818 28.5959C56.6537 28.9131 57.3581 29.1775 58.0951 29.389C58.832 29.5793 59.5473 29.6745 60.2409 29.6745C60.9778 29.6745 61.7039 29.5476 62.4192 29.2938C63.1562 29.0189 63.7631 28.6065 64.2399 28.0566C64.7167 27.5067 64.9552 26.777 64.9552 25.8676C64.9552 25.0851 64.7384 24.44 64.3049 23.9324C63.8931 23.4037 63.3404 22.9596 62.6468 22.6C61.9532 22.2193 61.2163 21.8809 60.436 21.5848C59.699 21.3099 58.9512 21.0138 58.1926 20.6966C57.434 20.3582 56.7296 19.9563 56.0793 19.4911C55.4291 19.0046 54.9089 18.4124 54.5187 17.7145C54.1286 17.0166 53.9335 16.1706 53.9335 15.1766C53.9335 13.9711 54.2261 12.9242 54.8113 12.0359C55.4182 11.1265 56.2419 10.4179 57.2823 9.91036C58.3227 9.38163 59.5148 9.09611 60.8586 9.05381C62.3759 9.05381 63.7089 9.23358 64.8576 9.59312C66.0281 9.95266 67.0576 10.3968 67.9463 10.9255L66.7433 13.2731Z" fill="white"/>
<path d="M75.3601 27.9614C75.3601 29.8225 74.9917 31.4088 74.2547 32.72C73.5394 34.0313 72.5532 35.0253 71.2961 35.7021C70.0389 36.4 68.5976 36.7807 66.972 36.8442V33.8621C68.4892 33.7775 69.7355 33.2488 70.7109 32.2759C71.7079 31.3242 72.2064 29.8543 72.2064 27.8662V9.18071H75.3601V27.9614Z" fill="white"/>
<path d="M78.8791 9.18071H82.0328V32.1173H78.8791V9.18071Z" fill="white"/>
<path d="M85.5339 32.1173V8.45105H85.5665L97.8886 25.5186L96.5556 25.2648L108.845 8.45105H108.91V32.1173H105.789V15.4304L105.984 16.9848L97.1083 29.2304H97.0433L88.0374 16.9848L88.5901 15.5573V32.1173H85.5339Z" fill="white"/>
<path d="M1.49736 14.8755C0.910622 15.8114 1.19363 17.0457 2.12947 17.6324C3.06532 18.2191 4.29962 17.9361 4.88636 17.0003L1.49736 14.8755ZM4.88636 17.0003C8.96775 10.4905 14.2808 6.15526 18.1923 4.94011C20.1345 4.33671 21.3149 4.60871 21.97 5.14743C22.6556 5.71123 23.4138 7.08855 23.3016 10.1544L27.2989 10.3007C27.4306 6.70449 26.6038 3.77924 24.5106 2.05791C22.3869 0.311505 19.5947 0.315832 17.0055 1.1202C11.8541 2.72057 5.86917 7.90254 1.49736 14.8755L4.88636 17.0003ZM23.3016 10.1544C23.0671 16.5611 21.5482 21.6122 18.9605 25.2217C16.4059 28.7851 12.7062 31.0936 7.75233 31.8872L8.38507 35.8369C14.3228 34.8856 18.995 32.0389 22.2114 27.5523C25.3947 23.1119 27.0457 17.2181 27.2989 10.3007L23.3016 10.1544ZM7.75233 31.8872C5.20333 32.2956 4.60117 31.6952 4.54578 31.6248C4.47313 31.5324 4.22058 30.9798 4.79577 29.5912C5.32144 28.3221 6.36284 26.8599 7.72681 25.6125C9.09275 24.3632 10.6408 23.458 12.0964 23.1208L11.1937 19.224C8.88326 19.7592 6.73985 21.0945 5.02728 22.6608C3.31274 24.2288 1.88862 26.1572 1.10025 28.0605C0.361396 29.8443 -0.0537114 32.2461 1.40104 34.0967C2.87305 35.9694 5.48826 36.3009 8.38507 35.8369L7.75233 31.8872Z" fill="url(#paint0_linear_388_182)"/>
<ellipse cx="11.6455" cy="21.1723" rx="2.43842" ry="2.22069" fill="#0E58A5"/>
<circle cx="19" cy="10" r="2" fill="#01A3FF"/>
<defs>
<linearGradient id="paint0_linear_388_182" x1="-9" y1="33.5" x2="36.5041" y2="-7.4954" gradientUnits="userSpaceOnUse">
<stop offset="0.375" stop-color="#00A3FF"/>
<stop offset="1" stop-color="#001AFF"/>
</linearGradient>
</defs>
</svg>
