<svg width="327" height="175" viewBox="0 0 327 175" fill="none" xmlns="http://www.w3.org/2000/svg">
<path d="M86.1562 23.2188C86.1562 27.4896 85.0885 31.474 82.9531 35.1719C80.8698 38.8698 78.1354 42.0729 74.75 44.7812C71.4167 47.4896 67.6927 49.625 63.5781 51.1875C59.4635 52.6979 55.401 53.401 51.3906 53.2969H50.1406V51.8906C53.5781 51.1615 56.8073 49.9115 59.8281 48.1406C62.901 46.3177 65.5573 44.1042 67.7969 41.5C70.0885 38.8958 71.8854 35.9792 73.1875 32.75C74.5417 29.5208 75.2188 26.1354 75.2188 22.5938C75.2188 20.25 74.9323 18.0365 74.3594 15.9531C73.7865 13.8698 72.901 12.0729 71.7031 10.5625C70.5052 9.05208 68.9688 7.85417 67.0938 6.96875C65.2708 6.08333 63.0833 5.64062 60.5312 5.64062C56.8854 5.64062 53.1875 6.1875 49.4375 7.28125C45.6875 8.375 42.0677 9.91146 38.5781 11.8906C35.0885 13.8698 31.8073 16.2135 28.7344 18.9219C25.7135 21.6302 23.0573 24.599 20.7656 27.8281C18.526 31.0573 16.7552 34.4948 15.4531 38.1406C14.151 41.7865 13.5 45.5104 13.5 49.3125C13.5 53.375 14.0729 56.8906 15.2188 59.8594C16.4167 62.776 18.0052 65.3542 19.9844 67.5938C22.0156 69.7812 24.3594 71.6562 27.0156 73.2188C29.6719 74.7812 32.5104 76.2135 35.5312 77.5156C38.5521 78.7656 41.625 79.9375 44.75 81.0312C47.9271 82.125 51.026 83.2969 54.0469 84.5469C57.0677 85.7969 59.9062 87.2031 62.5625 88.7656C65.2188 90.276 67.5365 92.099 69.5156 94.2344C71.5469 96.3177 73.1354 98.8177 74.2812 101.734C75.4792 104.599 76.0781 107.984 76.0781 111.891C76.0781 116.161 75.1927 119.964 73.4219 123.297C71.7031 126.63 69.4115 129.417 66.5469 131.656C63.6823 133.948 60.401 135.667 56.7031 136.812C53.0052 138.01 49.2031 138.609 45.2969 138.609C41.0781 138.609 37.1719 137.88 33.5781 136.422C29.9844 135.016 26.7552 133.089 23.8906 130.641C21.026 128.245 18.526 125.458 16.3906 122.281C14.2552 119.156 12.5365 115.901 11.2344 112.516L12.4062 111.891C13.9688 114.651 15.7656 117.359 17.7969 120.016C19.8281 122.724 22.1198 125.12 24.6719 127.203C27.224 129.339 30.0365 131.057 33.1094 132.359C36.2344 133.661 39.6198 134.312 43.2656 134.312C46.2344 134.312 48.9948 133.896 51.5469 133.062C54.099 132.229 56.3125 131.031 58.1875 129.469C60.0625 127.906 61.5208 125.979 62.5625 123.688C63.6562 121.396 64.2031 118.792 64.2031 115.875C64.2031 111.604 63.2917 108.089 61.4688 105.328C59.6458 102.568 57.25 100.224 54.2812 98.2969C51.3125 96.3698 47.9271 94.7292 44.125 93.375C40.3229 92.0208 36.4167 90.6667 32.4062 89.3125C28.4479 87.9062 24.5677 86.3438 20.7656 84.625C16.9635 82.8542 13.5781 80.6406 10.6094 77.9844C7.64062 75.3281 5.24479 72.0469 3.42188 68.1406C1.59896 64.1823 0.6875 59.3385 0.6875 53.6094C0.6875 48.401 1.49479 43.5052 3.10938 38.9219C4.72396 34.2865 6.9375 30.0417 9.75 26.1875C12.6146 22.3333 15.974 18.8958 19.8281 15.875C23.6823 12.8021 27.8229 10.1979 32.25 8.0625C36.7292 5.92708 41.3906 4.3125 46.2344 3.21875C51.0781 2.07292 55.9479 1.5 60.8438 1.5C64.3333 1.5 67.6146 1.91667 70.6875 2.75C73.8125 3.58333 76.4948 4.88542 78.7344 6.65625C81.026 8.375 82.8229 10.6146 84.125 13.375C85.4792 16.1354 86.1562 19.4167 86.1562 23.2188Z" fill="white"/>
<path d="M132.984 85.9531C132.984 89.599 132.385 92.9844 131.188 96.1094C129.99 99.2344 128.297 101.943 126.109 104.234C123.922 106.526 121.292 108.323 118.219 109.625C115.198 110.927 111.839 111.578 108.141 111.578C104.859 111.578 101.891 110.953 99.2344 109.703C96.6302 108.505 94.3906 106.865 92.5156 104.781C90.6406 102.698 89.2083 100.276 88.2188 97.5156C87.2292 94.7031 86.7344 91.7083 86.7344 88.5312C86.7344 85.875 87.099 83.349 87.8281 80.9531C88.6094 78.5573 89.6771 76.3438 91.0312 74.3125C92.3854 72.2292 94 70.3281 95.875 68.6094C97.75 66.8385 99.7812 65.25 101.969 63.8438L102.906 64.5469C100.719 67.099 99 69.9115 97.75 72.9844C96.5 76.0573 95.875 79.3125 95.875 82.75C95.875 85.25 96.2396 87.8021 96.9688 90.4062C97.75 92.9583 98.8698 95.3021 100.328 97.4375C101.786 99.5729 103.609 101.318 105.797 102.672C107.984 104.026 110.484 104.703 113.297 104.703C115.068 104.703 116.734 104.339 118.297 103.609C119.859 102.88 121.214 101.891 122.359 100.641C123.557 99.3906 124.495 97.9844 125.172 96.4219C125.901 94.8073 126.266 93.1406 126.266 91.4219C126.266 89.7552 126.005 88.1406 125.484 86.5781C125.016 84.9635 124.339 83.4792 123.453 82.125C122.568 80.7188 121.5 79.4688 120.25 78.375C119 77.2292 117.646 76.2917 116.188 75.5625C115.354 75.1458 114.547 74.8333 113.766 74.625C113.036 74.4167 112.229 74.1823 111.344 73.9219C110.979 73.8698 110.589 73.7917 110.172 73.6875C109.755 73.5312 109.365 73.375 109 73.2188C108.635 73.0104 108.323 72.75 108.062 72.4375C107.802 72.125 107.672 71.7344 107.672 71.2656C107.672 70.3281 108.01 69.4688 108.688 68.6875C109.365 67.9062 110.172 67.2292 111.109 66.6562C112.047 66.0312 113.036 65.5625 114.078 65.25C115.12 64.8854 116.031 64.7031 116.812 64.7031C119.469 64.7031 121.812 65.3802 123.844 66.7344C125.875 68.0885 127.568 69.8073 128.922 71.8906C130.276 73.974 131.292 76.2656 131.969 78.7656C132.646 81.2656 132.984 83.6615 132.984 85.9531Z" fill="#67BFFF"/>
<path d="M189.75 97.8281C188.396 99.8073 186.755 101.656 184.828 103.375C182.953 105.094 180.87 106.578 178.578 107.828C176.339 109.078 173.969 110.068 171.469 110.797C169.021 111.526 166.547 111.891 164.047 111.891C160.505 111.891 157.198 111.422 154.125 110.484C151.052 109.599 148.37 108.219 146.078 106.344C143.786 104.469 141.99 102.125 140.688 99.3125C139.385 96.4479 138.734 93.1146 138.734 89.3125C138.734 85.5625 139.411 82.0729 140.766 78.8438C142.172 75.5625 144.073 72.724 146.469 70.3281C148.917 67.8802 151.781 65.9531 155.062 64.5469C158.344 63.1406 161.859 62.4375 165.609 62.4375C167.38 62.4375 169.021 62.6979 170.531 63.2188C172.094 63.6875 173.448 64.4167 174.594 65.4062C175.74 66.3438 176.625 67.5156 177.25 68.9219C177.927 70.3281 178.266 71.9427 178.266 73.7656C178.266 75.9531 177.823 77.8802 176.938 79.5469C176.052 81.2135 174.88 82.6719 173.422 83.9219C171.964 85.1719 170.297 86.2135 168.422 87.0469C166.599 87.8802 164.672 88.5573 162.641 89.0781C160.661 89.599 158.682 89.9896 156.703 90.25C154.776 90.4583 153.005 90.5625 151.391 90.5625H149.516C150.193 95.3021 152.068 98.9219 155.141 101.422C158.214 103.922 162.458 105.172 167.875 105.172C171.729 105.172 175.479 104.495 179.125 103.141C182.823 101.786 186.156 99.9115 189.125 97.5156L189.75 97.8281ZM149.281 88.2188H151.234C153.109 88.2188 155.036 87.9323 157.016 87.3594C158.995 86.7344 160.766 85.849 162.328 84.7031C163.943 83.5052 165.271 82.0469 166.312 80.3281C167.354 78.6094 167.875 76.6562 167.875 74.4688C167.875 72.3333 167.406 70.5625 166.469 69.1562C165.583 67.75 164.021 67.0469 161.781 67.0469C159.49 67.0469 157.536 67.75 155.922 69.1562C154.359 70.5104 153.083 72.2031 152.094 74.2344C151.104 76.2135 150.375 78.3229 149.906 80.5625C149.49 82.75 149.281 84.7031 149.281 86.4219V88.2188Z" fill="white"/>
<path d="M229.172 100.406C227.505 103.844 225.161 106.578 222.141 108.609C219.12 110.589 215.682 111.578 211.828 111.578C208.651 111.578 205.812 110.615 203.312 108.688C200.812 106.76 198.599 104.234 196.672 101.109C194.797 97.9844 193.182 94.4688 191.828 90.5625C190.526 86.6042 189.432 82.5938 188.547 78.5312C187.714 74.4688 187.089 70.5625 186.672 66.8125C186.307 63.0104 186.125 59.7031 186.125 56.8906C186.125 53.4531 186.307 49.6771 186.672 45.5625C187.036 41.4479 187.635 37.3073 188.469 33.1406C189.302 28.9219 190.37 24.8333 191.672 20.875C193.026 16.9167 194.641 13.4271 196.516 10.4062C198.443 7.33333 200.656 4.88542 203.156 3.0625C205.656 1.1875 208.521 0.25 211.75 0.25C214.51 0.25 216.75 1.05729 218.469 2.67188C220.188 4.28646 221.542 6.29167 222.531 8.6875C223.521 11.0312 224.172 13.5312 224.484 16.1875C224.849 18.8438 225.031 21.2135 225.031 23.2969C225.031 28.9219 224.354 34.4688 223 39.9375C221.698 45.3542 219.875 50.4844 217.531 55.3281C215.24 60.1198 212.531 64.4948 209.406 68.4531C206.281 72.3594 202.922 75.6406 199.328 78.2969C200.057 81.7865 200.917 85.1979 201.906 88.5312C202.948 91.8125 204.198 94.7552 205.656 97.3594C207.115 99.9115 208.781 101.995 210.656 103.609C212.583 105.172 214.771 105.953 217.219 105.953C219.667 105.953 221.776 105.458 223.547 104.469C225.318 103.479 226.958 102.021 228.469 100.094L229.172 100.406ZM196.984 52.2031C196.932 53.349 196.906 54.7552 196.906 56.4219C196.958 58.0885 197.036 59.9375 197.141 61.9688C197.297 63.9479 197.505 66.0833 197.766 68.375C198.026 70.6667 198.365 73.0104 198.781 75.4062C202.271 72.2812 205.24 68.8177 207.688 65.0156C210.135 61.2135 212.141 57.125 213.703 52.75C215.266 48.3229 216.385 43.6875 217.062 38.8438C217.792 33.9479 218.156 28.8698 218.156 23.6094C218.156 22.9323 218.13 22.0469 218.078 20.9531C218.078 19.8594 218 18.6875 217.844 17.4375C217.688 16.1875 217.453 14.9375 217.141 13.6875C216.88 12.4375 216.49 11.3177 215.969 10.3281C215.5 9.28646 214.875 8.45312 214.094 7.82812C213.365 7.15104 212.479 6.8125 211.438 6.8125C209.458 6.8125 207.714 7.80208 206.203 9.78125C204.745 11.7083 203.469 14.1823 202.375 17.2031C201.333 20.224 200.448 23.5573 199.719 27.2031C199.042 30.849 198.495 34.3646 198.078 37.75C197.661 41.0833 197.375 44.0781 197.219 46.7344C197.062 49.3906 196.984 51.2135 196.984 52.2031Z" fill="white"/>
<path d="M278.062 81.3438C278.062 84.2604 277.49 87.3073 276.344 90.4844C275.25 93.6094 273.714 96.474 271.734 99.0781C269.755 101.682 267.385 103.844 264.625 105.562C261.917 107.229 258.948 108.062 255.719 108.062C254.573 108.062 253.401 107.88 252.203 107.516C251.057 107.099 249.99 106.526 249 105.797C248.062 105.016 247.281 104.104 246.656 103.062C246.083 102.021 245.797 100.849 245.797 99.5469C245.797 98.9219 246.057 98.401 246.578 97.9844C247.099 97.5156 247.672 97.2812 248.297 97.2812C249.078 97.2812 249.729 97.6719 250.25 98.4531C250.823 99.2344 251.422 100.094 252.047 101.031C252.724 101.917 253.505 102.75 254.391 103.531C255.328 104.312 256.552 104.703 258.062 104.703C259.938 104.703 261.604 104.078 263.062 102.828C264.521 101.526 265.745 99.9635 266.734 98.1406C267.724 96.3177 268.479 94.3906 269 92.3594C269.521 90.276 269.781 88.4531 269.781 86.8906C269.781 84.9115 269.521 82.9583 269 81.0312C268.479 79.1042 267.672 77.4115 266.578 75.9531C265.536 74.4427 264.182 73.2448 262.516 72.3594C260.901 71.4219 259 70.9531 256.812 70.9531C254.26 70.9531 252.099 71.8125 250.328 73.5312C248.609 75.25 247.177 77.4635 246.031 80.1719C244.938 82.8281 244.078 85.8229 243.453 89.1562C242.88 92.4896 242.438 95.7969 242.125 99.0781C241.865 102.307 241.708 105.302 241.656 108.062C241.604 110.823 241.578 113.01 241.578 114.625C241.578 122.177 241.37 128.974 240.953 135.016C240.536 141.109 239.964 146.604 239.234 151.5C238.505 156.396 237.646 160.719 236.656 164.469C235.667 168.271 234.599 171.656 233.453 174.625H231.5V137.281C231.5 125.875 231.292 114.547 230.875 103.297C230.458 91.9948 230.25 80.6146 230.25 69.1562C230.25 67.9583 230.484 66.9688 230.953 66.1875C231.474 65.3542 232.125 64.6771 232.906 64.1562C233.74 63.6354 234.677 63.2708 235.719 63.0625C236.76 62.8542 237.828 62.75 238.922 62.75C239.234 62.75 239.755 62.8281 240.484 62.9844C241.214 63.0885 241.578 63.375 241.578 63.8438C241.578 67.4896 241.552 71.0833 241.5 74.625C241.448 78.1667 241.37 81.7344 241.266 85.3281C241.995 82.8281 242.932 80.25 244.078 77.5938C245.224 74.8854 246.63 72.4375 248.297 70.25C249.964 68.0625 251.943 66.2656 254.234 64.8594C256.526 63.4531 259.208 62.75 262.281 62.75C264.885 62.75 267.151 63.2708 269.078 64.3125C271.057 65.3542 272.698 66.7344 274 68.4531C275.354 70.1719 276.37 72.151 277.047 74.3906C277.724 76.6302 278.062 78.9479 278.062 81.3438Z" fill="white"/>
<path d="M304.188 45.9531C304.188 46.9948 303.953 48.0365 303.484 49.0781C303.016 50.1198 302.391 51.0573 301.609 51.8906C300.88 52.6719 300.021 53.3229 299.031 53.8438C298.042 54.3646 297.026 54.625 295.984 54.625C294.63 54.625 293.536 54.1823 292.703 53.2969C291.922 52.4115 291.531 51.2917 291.531 49.9375C291.531 48.8958 291.766 47.8802 292.234 46.8906C292.703 45.849 293.302 44.9375 294.031 44.1562C294.812 43.375 295.672 42.75 296.609 42.2812C297.599 41.7604 298.615 41.5 299.656 41.5C301.01 41.5 302.104 41.9167 302.938 42.75C303.771 43.5833 304.188 44.651 304.188 45.9531ZM326.062 97.8281C324.865 99.8073 323.432 101.63 321.766 103.297C320.151 104.911 318.354 106.344 316.375 107.594C314.448 108.792 312.365 109.729 310.125 110.406C307.938 111.083 305.672 111.422 303.328 111.422C300.411 111.422 297.807 110.927 295.516 109.938C293.276 108.948 291.375 107.594 289.812 105.875C288.302 104.104 287.13 102.047 286.297 99.7031C285.516 97.3073 285.125 94.7031 285.125 91.8906C285.125 88.8698 285.568 86.0052 286.453 83.2969C287.339 80.5885 288.562 78.0625 290.125 75.7188C291.688 73.3229 293.51 71.1354 295.594 69.1562C297.729 67.1771 299.995 65.4062 302.391 63.8438L303.328 64.5469C300.776 67.5677 298.693 70.9531 297.078 74.7031C295.516 78.4531 294.734 82.3594 294.734 86.4219C294.734 88.7656 294.995 91.0312 295.516 93.2188C296.089 95.3542 296.948 97.2552 298.094 98.9219C299.292 100.589 300.802 101.917 302.625 102.906C304.448 103.896 306.661 104.391 309.266 104.391C312.339 104.391 315.255 103.74 318.016 102.438C320.828 101.135 323.354 99.4948 325.594 97.5156L326.062 97.8281Z" fill="white"/>
</svg>
